<?xml version="1.0" standalone="yes"?>
<svg xmlns="http://www.w3.org/2000/svg" width="1280" height="1280">
<path style="fill:#054137; stroke:none;" d="M0 0L0 1280L1280 1280L1280 0L0 0M853 269C848.535 282.087 839.426 293.959 832.709 306C818.505 331.461 803.93 356.704 789.427 382C752.386 446.609 715.615 511.389 678.573 576C663.655 602.02 648.544 627.925 633.719 654C626.816 666.141 618.526 678.176 613 691C619.171 693.747 624.605 698.574 630 702.627C640.432 710.463 650.585 718.668 661 726.525C695.437 752.506 730.078 778.355 764 805C775.589 814.103 787.27 823.086 799 832C801.822 834.145 809.793 837.989 809.793 842.075C809.793 845.042 806.151 847.032 803.999 848.381C798.145 852.051 791.924 855.11 786 858.659C760.774 873.771 735.433 888.664 710 903.424C628.21 950.894 547.018 999.38 465 1046.43C443.215 1058.92 421.794 1072.08 400 1084.58C391.211 1089.62 381.398 1098.44 371 1099C372.092 1092.87 375.65 1088.3 378.664 1083C382.967 1075.43 386.893 1067.61 391.14 1060C406.427 1032.6 421.422 1005.01 437.397 978C470.986 921.201 502.308 863.06 535.424 806C548.154 784.067 560.611 761.97 573.284 740C580.266 727.895 588.464 715.848 594 703C583.28 698.03 574.971 686.968 565.83 679.576C554.893 670.731 544.635 661.077 533.961 651.917C520.998 640.792 507.577 630.133 495.514 618.001C486.72 609.156 469.686 598.472 472.418 584C473.868 576.319 482.511 571.568 488 566.869C502.095 554.801 516.658 543.298 531 531.537C587.451 485.242 643.45 438.24 699.001 390.866C722.756 370.607 746.99 350.882 771 330.919C784.971 319.303 798.462 306.75 813 295.861C821.588 289.428 829.551 282.059 838 275.404C842.453 271.896 847.128 268.177 853 269M811 323C789.519 343.557 764.841 361.259 742 380.286C687.384 425.781 632.438 470.867 578 516.562C559.564 532.036 540.914 547.423 522 562.339C514.457 568.288 502.992 577.449 503.083 588C503.182 599.42 519.316 608.391 527 615.155C543.313 629.515 559.788 643.691 576 658.166C585.714 666.839 595.125 676.807 606 684C658.925 597.525 705.255 506.956 757.4 420C771.197 396.991 783.477 373.056 797.201 350C800.746 344.044 804.078 337.967 807.603 332C809.317 329.1 811.495 326.396 811 323M601 709C596.046 720.837 588.478 731.93 582.012 743C572.135 759.91 562.558 776.991 552.85 794C516.853 857.064 480.686 920.009 444.573 983C429.969 1008.47 412.418 1033.4 400 1060C412.495 1054.61 424.187 1046.2 436 1039.43C462.694 1024.12 489.387 1008.87 516 993.424C550.302 973.519 584.625 953.606 619 933.872C638.606 922.617 658.767 912.254 678 900.366C687.713 894.362 698.112 889.481 708 883.775C719.06 877.392 729.797 870.342 741 864.231C747.125 860.89 760.533 854.66 759.497 846C758.796 840.141 752.774 836.618 748.576 833.329C738.743 825.627 729.461 817.15 720 809C697.511 789.627 675.161 770.106 652.015 751.517C640.117 741.961 628.412 732.306 617 722.167C612.185 717.889 606.998 714.092 603 709L601 709z"/>
</svg>
